<svg xmlns="http://www.w3.org/2000/svg" viewBox="0 0 242.43 84.71"><defs><style>.cls-1{fill:#231f20;}</style></defs><title>Asset 2</title><g id="Layer_2" data-name="Layer 2"><g id="Layer_1-2" data-name="Layer 1"><path class="cls-1" d="M15.23,37.35H14c-1.6,0-6,0-7.9.6-2.25.7-3.75,4.2-4.45,5.8a.37.37,0,0,1-.5.25l-.9-.25c-.15,0-.3-.1-.2-.4.5-1.8,2.25-8.25,2.35-8.8s.3-.8.5-.8a.87.87,0,0,1,.6.2l.65.45A4.14,4.14,0,0,0,7,35.25c2.65.1,4.75.3,9.45.3h2.4c5.45,0,7.6-.2,10.05-.3a4.92,4.92,0,0,0,2.6-.7l.95-.6a1.07,1.07,0,0,1,.6-.2c.25,0,.35.15.45.8s1,6.8,1.45,9c0,.25-.05.35-.3.4l-.8.2c-.2.05-.25,0-.4-.35-.4-.95-1.9-4.8-3.55-5.6s-6.2-.85-8.65-.85h-1.4V51.61c0,.7,0,14.7,0,15.55.1,1.25.5,2,1.7,2h3.15c.45,0,.5.15.5.5v1.05c0,.25-.05.4-.5.4s-2.1-.15-7-.15-6.9.15-7.6.15c-.4,0-.45-.2-.45-.5v-1c0-.35,0-.5.35-.5h3.4A1.5,1.5,0,0,0,15.08,68c.15-1.45.15-16.8.15-17.75Z"/><path class="cls-1" d="M31.68,82a2.21,2.21,0,0,1,2.3-2,8.6,8.6,0,0,1,2.3.55,1.2,1.2,0,0,0,1.05-.3,60.37,60.37,0,0,0,4-8.55c-.25-1.25-5.55-16.9-6-18-.6-1.25-1.05-2.1-2.35-2.1h-1.3c-.35,0-.4-.15-.4-.45v-1c0-.2,0-.35.4-.35s1.65.15,4.6.15c2.55,0,4.1-.15,4.65-.15s.45.15.45.35v1c0,.25-.05.4-.3.4h-.95c-.55,0-.75.35-.65,1.1.15,1.1,3.55,12.15,4.1,13.25h.2c.5-.8,4.85-11.2,5.15-12.45s-.1-1.9-.85-1.9h-.8c-.3,0-.35-.15-.35-.4v-1c0-.25,0-.4.3-.4.65,0,1.7.15,4.1.15,1.35,0,2.5-.15,3-.15.3,0,.3.2.3.4v1c0,.3,0,.45-.25.45h-.8a2.24,2.24,0,0,0-1.75.9c-1.1,1.35-4.4,9-7.85,16.85-2.45,5.55-4.4,10.2-5.3,11.85-.7,1.3-1.6,3.25-4.25,3.25C32.63,84.56,31.68,83.51,31.68,82Z"/><path class="cls-1" d="M58.48,56.81c0-1.2-.35-1.9-1.8-2.7l-1.15-.65c-.35-.15-.35-.3-.35-.45v-.4c0-.15.1-.25.35-.35l4.8-2.4a2.88,2.88,0,0,1,1.15-.4c.25,0,.35.25.35,1l.2,2.4h.15a9.24,9.24,0,0,1,7.3-3.35A8,8,0,0,1,75.18,52c1.9,1.9,2.7,4,2.7,7.8,0,6.55-4.55,11.8-10.8,11.8a14.21,14.21,0,0,1-5-.85V81.26c0,1.4.35,1.65,1.1,1.65h2.2c.4,0,.45.2.45.5v.85c0,.3-.1.45-.45.45s-2-.15-5.15-.15c-2.9,0-4.65.15-5.05.15s-.45-.15-.45-.45v-.9c0-.25.1-.45.6-.45h1.95c.85,0,1-.5,1.05-1.25.15-1.1.15-3.8.15-8.7ZM62.08,66a2.78,2.78,0,0,0,1.05,2.65,8.07,8.07,0,0,0,5,1.35c2.85,0,5.8-2.15,5.8-8.35,0-7-3.15-9.8-6.5-9.8A6.35,6.35,0,0,0,62.08,55Z"/><path class="cls-1" d="M84.23,68.11c-2.3-2.75-2.75-4.6-2.75-8.15a10.63,10.63,0,0,1,4.3-8.05,10.82,10.82,0,0,1,6.7-2.4,10.58,10.58,0,0,1,7,2.9,11.1,11.1,0,0,1,3.4,8.15,11.41,11.41,0,0,1-11.05,11A10.08,10.08,0,0,1,84.23,68.11Zm14.45-8.05c0-5.55-4.05-9.05-6.6-9.05a4.82,4.82,0,0,0-3.85,1.6c-2,2-2.65,4.05-2.65,7.85,0,2.8.3,4.7,1.9,7a5.53,5.53,0,0,0,5,2.6C96.23,70.06,98.68,65.41,98.68,60.06Z"/><path class="cls-1" d="M107.88,83a4.52,4.52,0,0,1-2.55-4.05c0-2.8,2.85-5,5.25-6v-.2a3.88,3.88,0,0,1-3.35-3.5c0-2.4,2.75-4.1,4.5-4.75v-.1a8,8,0,0,1-4.65-7.6c0-3.25,2.9-7.25,8.55-7.25a8,8,0,0,1,6.3,2.9,8.88,8.88,0,0,1,4.7-2c1.65,0,2.45,1.1,2.35,2.1a1.9,1.9,0,0,1-2,1.85,2.49,2.49,0,0,1-1.75-.75,2,2,0,0,0-1.05-.45,3.64,3.64,0,0,0-1.6.3,9.44,9.44,0,0,1,.75,3.8,8.24,8.24,0,0,1-1.85,5.4A8.94,8.94,0,0,1,113.18,65c-1,.4-2.65,1.4-2.65,2.8,0,2.05,2.5,1.9,5.85,1.7,4.1-.2,6.6.25,8.6,1.8a5.88,5.88,0,0,1,2.45,4.8c0,2.35-.85,4.3-3.35,6.15a15,15,0,0,1-8.55,2.35A15.65,15.65,0,0,1,107.88,83Zm16.5-5.15c0-3-2.25-5.2-7.25-4.85l-4.8.35c-1.55.4-4,2.1-4,4.8a4.8,4.8,0,0,0,2,3.45c1.65,1.15,3.45,1.4,7,1.4C119.13,83,124.63,81.66,124.38,77.81Zm-4.65-21.3c0-2.2-.45-3.5-1.35-4.5a3.78,3.78,0,0,0-2.4-1.1,4.59,4.59,0,0,0-3.55,1.4c-1.6,1.7-1.8,4-1.8,5.9a6.22,6.22,0,0,0,1.6,4.35,4.08,4.08,0,0,0,3,1.25C118.63,63.81,119.73,59.66,119.73,56.51Z"/><path class="cls-1" d="M133.73,57.66c0-2.55-.4-3.05-1.8-3.8l-1-.5c-.3-.1-.4-.15-.4-.35v-.3c0-.2.1-.3.4-.45l5-2.55a1.51,1.51,0,0,1,.7-.2c.3,0,.35.3.35.6l.25,3.55h.2c1.5-2.3,3.85-4.35,6-4.35a2.26,2.26,0,0,1,2.55,2.2,2.42,2.42,0,0,1-2.1,2.45,3.28,3.28,0,0,1-1.45-.4,3.22,3.22,0,0,0-1.65-.4,3.55,3.55,0,0,0-3,2.1,5.39,5.39,0,0,0-.5,1.6v10.4c0,1.55.35,2.05,1.4,2.05h2.35c.3,0,.35.15.35.45v.9c0,.3,0,.45-.25.45s-2.6-.15-5.3-.15c-3.1,0-5.2.15-5.5.15s-.3-.1-.3-.5v-.85c0-.35.1-.45.55-.45h2c.75,0,1.1-.3,1.1-1,0-1.65,0-3.4,0-6Z"/><path class="cls-1" d="M163,65c0,2.85.6,3.75,1.5,3.75a2.3,2.3,0,0,0,1.75-.75c.2-.25.3-.35.5-.2l.5.4c.15.15.25.4,0,.9a4.13,4.13,0,0,1-3.9,2.45c-1.8,0-3.1-1.3-3.55-3.35h-.1a10.78,10.78,0,0,1-5,3,9.39,9.39,0,0,1-3,.3c-1.2,0-3-1-3-4.15,0-2.3,1-4.3,5-6.05a33.09,33.09,0,0,0,5.65-2.9v-3.2a5.82,5.82,0,0,0-.7-2.8,3.8,3.8,0,0,0-3-1.1,5.6,5.6,0,0,0-3.25,1c-.7.65-.25,1.4-.25,2.3,0,1.75-.6,2.85-2.65,2.85-.8,0-1.2-.45-1.2-1.6,0-1.6,1.4-3.5,3.45-4.7a11,11,0,0,1,6.1-1.75,5.13,5.13,0,0,1,4,1.35,4.42,4.42,0,0,1,1.1,3.55V65ZM159.33,60c-1.8,1.35-6.7,2.35-6.7,6.5a2.46,2.46,0,0,0,2.6,2.75c1.45,0,4.1-1.75,4.1-3.1Z"/><path class="cls-1" d="M172,56.81c0-1.2-.35-1.9-1.8-2.7L169,53.46c-.35-.15-.35-.3-.35-.45v-.4c0-.15.1-.25.35-.35l4.8-2.4a2.88,2.88,0,0,1,1.15-.4c.25,0,.35.25.35,1l.2,2.4h.15a9.24,9.24,0,0,1,7.3-3.35,8,8,0,0,1,5.7,2.45c1.9,1.9,2.7,4,2.7,7.8,0,6.55-4.55,11.8-10.8,11.8a14.21,14.21,0,0,1-5-.85V81.26c0,1.4.35,1.65,1.1,1.65h2.2c.4,0,.45.2.45.5v.85c0,.3-.1.45-.45.45s-2-.15-5.15-.15c-2.9,0-4.65.15-5.05.15s-.45-.15-.45-.45v-.9c0-.25.1-.45.6-.45h1.95c.85,0,1-.5,1.05-1.25.15-1.1.15-3.8.15-8.7Zm3.6,9.15a2.78,2.78,0,0,0,1.05,2.65,8.07,8.07,0,0,0,5,1.35c2.85,0,5.8-2.15,5.8-8.35,0-7-3.15-9.8-6.5-9.8a6.35,6.35,0,0,0-5.35,3.2Z"/><path class="cls-1" d="M197.88,43.7c0-3.05-.6-3.6-2.4-4.2l-.85-.3c-.3-.1-.35-.15-.35-.3v-.45c0-.2.15-.25.6-.5l5.2-2.75a2.65,2.65,0,0,1,1.15-.4c.3,0,.5.4.4,1.25s-.15,11-.15,13.5v3.2h.25a9.54,9.54,0,0,1,6.85-3.25,6.56,6.56,0,0,1,5,2c2.25,2.1,2.15,4.65,2.15,7.35v2.85c0,2.8.1,5.9.1,6.85,0,.6.8.75,1.85.75h.85c.4,0,.55.1.55.45v.75c0,.4-.1.6-.4.6s-1.95-.15-4.8-.15c-2.45,0-4.25.15-4.7.15s-.45-.15-.45-.55v-.85c0-.25,0-.4.35-.4h1.15c.85,0,1.85-.1,1.9-1s0-3.35,0-5V59.36c0-2.8-.2-4.8-1.65-6.15a4.58,4.58,0,0,0-3.3-1.4,6.1,6.1,0,0,0-4.65,2.1,4.35,4.35,0,0,0-1,2.45v10.9c0,1.6.15,2.05,1.1,2.05h1.5c.35,0,.55.1.55.4v.85c0,.35-.1.55-.4.55s-2.45-.15-4.75-.15c-2.5,0-4.4.15-4.85.15-.2,0-.35-.15-.35-.5v-.9c0-.35.2-.4.75-.4h1c.8,0,1.55-.2,1.65-.8.15-1,.15-6.45.15-9.7Z"/><path class="cls-1" d="M219.38,82a2.21,2.21,0,0,1,2.3-2,8.6,8.6,0,0,1,2.3.55,1.2,1.2,0,0,0,1.05-.3,60.37,60.37,0,0,0,4-8.55c-.25-1.25-5.55-16.9-6-18-.6-1.25-1.05-2.1-2.35-2.1h-1.3c-.35,0-.4-.15-.4-.45v-1c0-.2,0-.35.4-.35s1.65.15,4.6.15c2.55,0,4.1-.15,4.65-.15s.45.15.45.35v1c0,.25-.05.4-.3.4h-.95c-.55,0-.75.35-.65,1.1.15,1.1,3.55,12.15,4.1,13.25h.2c.5-.8,4.85-11.2,5.15-12.45s-.1-1.9-.85-1.9H235c-.3,0-.35-.15-.35-.4v-1c0-.25,0-.4.3-.4.65,0,1.7.15,4.1.15,1.35,0,2.5-.15,3-.15.3,0,.3.2.3.4v1c0,.3,0,.45-.25.45h-.8a2.24,2.24,0,0,0-1.75.9c-1.1,1.35-4.4,9-7.85,16.85-2.45,5.55-4.4,10.2-5.3,11.85-.7,1.3-1.6,3.25-4.25,3.25C220.33,84.56,219.38,83.51,219.38,82Z"/><path class="cls-1" d="M64.34,13H53.85v5.67h9.9v7.47h-9.9V32H64.34v7.47H45V5.52h19.3Z"/><path class="cls-1" d="M78.65,26.94,69.29,16.36H79.91l4,4.77,4-4.77H98.54L89,26.94l11.56,12.51H89.72l-5.9-6.84-5.94,6.84H67.13Z"/><path class="cls-1" d="M100.92,27.7a11.23,11.23,0,0,1,1-4.79A11.77,11.77,0,0,1,104.84,19a13.69,13.69,0,0,1,4.39-2.59,15.84,15.84,0,0,1,5.56-.94,16.07,16.07,0,0,1,5.51.92A13.66,13.66,0,0,1,124.7,19a11.53,11.53,0,0,1,2.9,3.92,12,12,0,0,1,1,5,11.76,11.76,0,0,1-1.06,5,11.91,11.91,0,0,1-2.9,3.92,13,13,0,0,1-4.43,2.54,17,17,0,0,1-5.6.9,16.22,16.22,0,0,1-5.49-.9,12.66,12.66,0,0,1-4.34-2.56,11.89,11.89,0,0,1-2.86-4A12.49,12.49,0,0,1,100.92,27.7Zm8.59.09a5.22,5.22,0,0,0,.43,2.14,5.7,5.7,0,0,0,1.13,1.69,4.94,4.94,0,0,0,1.67,1.13,5.37,5.37,0,0,0,4.09,0,5,5,0,0,0,1.67-1.12,5.72,5.72,0,0,0,1.13-1.69,5.12,5.12,0,0,0,.43-2.09,5,5,0,0,0-.43-2,5.74,5.74,0,0,0-1.12-1.69A5,5,0,0,0,116.83,23a5.38,5.38,0,0,0-4.09,0,5,5,0,0,0-1.67,1.13,5.81,5.81,0,0,0-1.12,1.67A4.85,4.85,0,0,0,109.52,27.79Z"/><path class="cls-1" d="M142.55,23.16V39.45H134.4V23.16h-2.7V16.36h2.7V9.43h8.15v6.93h4.64v6.79Z"/><path class="cls-1" d="M150.33,7.5a4.43,4.43,0,0,1,.36-1.78C150.93,5.17,154.33,0,155,0s3.95,5.17,4.19,5.72a4.56,4.56,0,0,1,0,3.56,4.66,4.66,0,0,1-2.45,2.45,4.56,4.56,0,0,1-3.56,0,4.67,4.67,0,0,1-2.45-2.45A4.43,4.43,0,0,1,150.33,7.5ZM159,16.36V39.45h-8.15V16.36Z"/><path class="cls-1" d="M182,23.83a7.54,7.54,0,0,0-4.27-1.44,5.82,5.82,0,0,0-2.18.41,5.4,5.4,0,0,0-1.78,1.15,5.27,5.27,0,0,0-1.19,1.75,5.79,5.79,0,0,0-.43,2.27,5.67,5.67,0,0,0,.43,2.23A5.45,5.45,0,0,0,173.75,32a5.11,5.11,0,0,0,1.78,1.15,6,6,0,0,0,2.21.41A6.73,6.73,0,0,0,182,31.93v6.93a14.41,14.41,0,0,1-5.71,1.31,13.51,13.51,0,0,1-4.79-.85,12.16,12.16,0,0,1-4-2.45A12,12,0,0,1,164.73,33a11.65,11.65,0,0,1-1-5,12.43,12.43,0,0,1,1-5,12,12,0,0,1,2.7-3.92,12.23,12.23,0,0,1,4.07-2.56,13.8,13.8,0,0,1,5.06-.92A12.11,12.11,0,0,1,182,16.9Z"/></g></g></svg>