<svg xmlns="http://www.w3.org/2000/svg" viewBox="0 0 300 400" height="400" width="300"><defs><style>.a,.b,.c,.d,.e{fill:none;stroke:#000;}.a,.b,.d{stroke-linejoin:round;}.a,.c,.d,.e{stroke-width:2.5px;}.b,.d{stroke-linecap:round;}.b{stroke-width:1.5px;opacity:0.3;}.c{stroke-linejoin:bevel;}.e{stroke-miterlimit:10;}</style></defs><path class="a" d="M86.81,66.74A50.17,50.17,0,0,1,80,64.28a18.22,18.22,0,0,1-6.59-5.67A14.19,14.19,0,0,1,71.63,50m54.2,16.38q-5.31.8-10.4,1.44a115.58,115.58,0,0,1-13.26.91q-1.36,0-2.68,0M129.1,92.41a43.28,43.28,0,0,1-2-8.32,32,32,0,0,1,.13-9.48q.18-1.06.41-2.12M142.2,116c-.7-1.9,0,0-1.65-2.45a179.31,179.31,0,0,1-27.91-3.26,135,135,0,0,1-25.38-7.57,48,48,0,0,0-9-2.88,28.25,28.25,0,0,0-7.94-.5A32.52,32.52,0,0,0,62.39,101a83.2,83.2,0,0,0-8.7,3.6M241.81,75.09c0,3.82-2.83,8-6.72,11.23A92.59,92.59,0,0,1,220,96.67,124.16,124.16,0,0,1,194.68,107a163.75,163.75,0,0,1-27.89,5.46,12.46,12.46,0,0,1-2.2,11.35q-3.89,5.15-13.33,10.32-2.79,1.53-6.22,3.09t-6.91,2.92q-3.48,1.36-6.88,2.35a57.81,57.81,0,0,1-6.32,1.5M213,72.85a25,25,0,0,0-7.69-6.16A46.63,46.63,0,0,0,192.89,62a76.52,76.52,0,0,0-13.72-1.71,112.7,112.7,0,0,0-14.68.45q-7.56.71-15.13,1.84M132.64,42.91a17.3,17.3,0,0,0-4.88-3.73,28.22,28.22,0,0,0-8.28-3,37.13,37.13,0,0,0-9.09-.6,41.54,41.54,0,0,0-9.19,1.56,42.36,42.36,0,0,0-8.69,3.57,32.26,32.26,0,0,0-5,3.31"/><path class="a" d="M78.24,85.09a28.25,28.25,0,0,0-7.94-.5,32.52,32.52,0,0,0-7.91,1.73,90.2,90.2,0,0,0-9,3.76L49,87.71l46-25.22,4.34,2.38a65.6,65.6,0,0,0-7,4.95,10.59,10.59,0,0,0-3.38,4.27,4.12,4.12,0,0,0,.77,4,17.4,17.4,0,0,0,5.49,4.17,82.79,82.79,0,0,0,18.81,7.24,124.08,124.08,0,0,0,22.67,3.66,76.93,76.93,0,0,1-6.8-13,46.55,46.55,0,0,1-2.92-10.83,32,32,0,0,1,.13-9.48A48.39,48.39,0,0,1,129.64,51q-7.3,1.17-14.21,2a115.58,115.58,0,0,1-13.26.91,66.93,66.93,0,0,1-12-.92A32.79,32.79,0,0,1,80,49.57a18.22,18.22,0,0,1-6.59-5.67A9.3,9.3,0,0,1,71.81,37,15.43,15.43,0,0,1,76,29.4a40.29,40.29,0,0,1,10.49-7.71,66.8,66.8,0,0,1,17-6.64,74.49,74.49,0,0,1,15.82-2,57.31,57.31,0,0,1,13.34,1.24,37.12,37.12,0,0,1,9.49,3.3,25.14,25.14,0,0,1,6,4.42,14.86,14.86,0,0,1,3.34,5.21,17.1,17.1,0,0,1,1,6.2,30.6,30.6,0,0,1-1.11,7.41q10.45-2,21.12-3.57a167.28,167.28,0,0,1,20.94-1.83,106.13,106.13,0,0,1,19.8,1.35,55.24,55.24,0,0,1,17.63,6,23.35,23.35,0,0,1,9,7.92,12.54,12.54,0,0,1,1.64,9.7q-1.17,5.16-6.41,10.68T220,82a124.16,124.16,0,0,1-25.32,10.35,163.75,163.75,0,0,1-27.89,5.46,12.46,12.46,0,0,1-2.2,11.35q-3.89,5.15-13.33,10.32-2.79,1.53-6.22,3.09t-6.91,2.92q-3.48,1.36-6.88,2.35a57.81,57.81,0,0,1-6.32,1.5l-6-3.29q4.09-1.14,8.73-2.87a74,74,0,0,0,9.76-4.52,21,21,0,0,0,5.29-3.86,7.67,7.67,0,0,0,2.12-4.27,10.8,10.8,0,0,0-.76-5.16,32.11,32.11,0,0,0-3.53-6.52,179.31,179.31,0,0,1-27.91-3.26A135,135,0,0,1,87.25,88,48,48,0,0,0,78.24,85.09ZM212.69,73.26a12.56,12.56,0,0,0,3.13-7.84,11.7,11.7,0,0,0-2.8-7.29A25,25,0,0,0,205.33,52a46.63,46.63,0,0,0-12.44-4.65,76.52,76.52,0,0,0-13.72-1.71,112.7,112.7,0,0,0-14.68.45q-7.56.71-15.13,1.84a32.17,32.17,0,0,0-.85,8.55,35.11,35.11,0,0,0,1.81,9.38,72.83,72.83,0,0,0,5,11.43Q158.64,83.59,164,92c.17.09.26.18.28.26a.35.35,0,0,0,.19.21,116.44,116.44,0,0,0,20.15-4,90.37,90.37,0,0,0,18-7.39Q209.53,77.28,212.69,73.26ZM119.48,21.52a37.13,37.13,0,0,0-9.09-.6,41.54,41.54,0,0,0-9.19,1.56,42.36,42.36,0,0,0-8.69,3.57,26.16,26.16,0,0,0-6.83,5A9.07,9.07,0,0,0,83.11,36a6.4,6.4,0,0,0,1.32,4.57A14.15,14.15,0,0,0,89.2,44.5a23.79,23.79,0,0,0,8,2.55,58.14,58.14,0,0,0,10.17.51,106.67,106.67,0,0,0,11.9-1.08q6.33-.91,13.2-2.11a47.11,47.11,0,0,0,2-6.49,13.77,13.77,0,0,0,.25-5.3,8.91,8.91,0,0,0-2.11-4.37,17.3,17.3,0,0,0-4.88-3.73A28.22,28.22,0,0,0,119.48,21.52Z"/><line class="b" x1="104.77" y1="260.3" x2="80.39" y2="279.12"/><line class="b" x1="113.6" y1="261.77" x2="89.22" y2="280.59"/><line class="b" x1="143.03" y1="283.84" x2="118.64" y2="302.66"/><line class="b" x1="151.85" y1="285.31" x2="127.47" y2="304.13"/><line class="a" x1="71.63" y1="38.82" x2="71.63" y2="50.32"/><polyline class="a" points="99.31 65.05 99.31 72.67 90.08 78.97"/><line class="a" x1="53.69" y1="90.08" x2="53.69" y2="105.97"/><line class="a" x1="49.02" y1="87.39" x2="49.02" y2="103.3"/><line class="c" x1="124.57" y1="129.08" x2="124.57" y2="146.55"/><line class="a" x1="119" y1="126.16" x2="119" y2="143.67"/><line class="a" x1="235.41" y1="86.8" x2="288.07" y2="118.2"/><line class="a" x1="18.64" y1="85.9" x2="72.05" y2="53.4"/><polyline class="d" points="124.58 146.56 184.78 181.03 288.06 118.91 288.06 257.21 184.78 318.51"/><line class="d" x1="53.69" y1="105.97" x2="119.01" y2="143.37"/><polyline class="d" points="18.64 154.03 18.64 85.9 49.03 103.3"/><line class="c" x1="166.83" y1="104.76" x2="166.79" y2="112.48"/><line class="a" x1="241.81" y1="75.09" x2="241.81" y2="58.2"/><polyline class="e" points="141.07 208.01 129.24 248.28 141.07 208.01"/><polyline class="e" points="127.82 200.65 116.12 240.51 127.82 200.65"/><polyline class="a" points="184.04 351.82 288.06 290.34 288.06 326.6 184.78 388.48"/><polyline class="e" points="114.75 193.01 103.06 232.78 114.75 193.01"/><polyline class="e" points="101.34 184.47 89.5 224.76 101.34 184.47"/><polyline class="e" points="88.1 177.11 76.38 216.99 88.1 177.11"/><polyline class="e" points="74.86 169.75 63.26 209.23 74.86 169.75"/><polyline class="e" points="61.98 161.14 50.13 201.49 61.62 162.4"/><polyline class="e" points="48.38 153.57 36.5 194 48.38 153.57"/><polyline class="e" points="35.13 146.21 23.36 186.31 35.13 146.21"/><polyline class="e" points="154.31 215.36 142.36 256.04 154.31 215.36"/><polyline class="e" points="166.08 222.72 154.23 263.07 166.08 222.72"/><polygon class="e" points="11.53 178.6 23.18 138.33 166.82 222.78 166.82 256.04 154.23 263.07 11.53 178.6"/><line class="c" x1="27.62" y1="200.7" x2="27.62" y2="297.86"/><line class="c" x1="50.13" y1="209.23" x2="50.13" y2="310.4"/><polygon points="26.05 297.49 50.43 283.14 50.43 309.76 26.05 297.49"/><path class="a" d="M18.64,193V293.35l41.9,23.42,9.73-5.69,45.86,26.17L121,351.34l63.76,37.15v-37.1A18.45,18.45,0,0,1,175,334.85a18,18,0,0,1,9.75-16.33V181"/><path class="a" d="M288.07,290.34a18.45,18.45,0,0,1-9.75-16.54,18,18,0,0,1,9.75-16.33"/><path class="d" d="M11.3,179v5.86s.32,8.12,5.23,8.12c7,0,6.82-6.7,6.82-6.7"/><path class="d" d="M23.33,186.8v5.86s.07,8,5,8c7,0,8.34-7.22,8.34-7.22"/><path class="d" d="M37.34,194v5.86s.09,8.54,5,8.54c7,0,7.56-6.68,7.56-6.68"/><path class="d" d="M50.14,200.7v5.86s.09,8.54,5,8.54c7,0,7.8-6.06,7.8-6.06"/><path class="d" d="M63.74,209.79v5.86s.09,8.54,5,8.54c7,0,6.82-6.7,6.82-6.7"/><path class="d" d="M76,217.56v5.86s-1,7,5,8.54,8-6.57,8-6.57"/><path class="d" d="M89.51,225.58v5.86s.09,8.54,5,8.54c7,0,7.94-6.81,7.94-6.81"/><path class="d" d="M103,233.68v5.86s.09,8.54,5,8.54a7.53,7.53,0,0,0,7.74-6.59"/><path class="d" d="M116.32,240.89v5.86s.09,8.54,5,8.54c7,0,7.91-6.77,7.91-6.77"/><path class="d" d="M129,249.11V255s.09,8.54,5,8.54c7,0,8-7,8-7"/><path class="d" d="M142.42,256.31v5.86s.09,8.54,5,8.54c7,0,6.82-6.7,6.82-6.7"/><polyline class="e" points="152.19 269.06 166.81 277.54 166.81 278.61"/><line class="e" x1="139.33" y1="261.59" x2="143.04" y2="263.74"/><line class="e" x1="126.05" y1="253.88" x2="129.23" y2="255.73"/><line class="e" x1="113.03" y1="246.33" x2="116.34" y2="248.24"/><line class="e" x1="99.44" y1="238.44" x2="103.02" y2="240.51"/><line class="e" x1="86.06" y1="230.66" x2="89.51" y2="232.67"/><line class="e" x1="72.91" y1="223.04" x2="75.98" y2="224.82"/><polyline class="e" points="63.74 217.71 59.71 215.37 59.05 215.36 59.05 289.85 166.82 350.46 166.82 277.92 166.82 277.55"/><line class="e" x1="46.19" y1="207.52" x2="50.14" y2="209.81"/><line class="e" x1="32.53" y1="199.59" x2="37.62" y2="202.55"/><circle cx="46.39" cy="246.33" r="0.94"/></svg>
